<svg id="visual" viewBox="0 0 1920 1080" width="1920" height="1080" xmlns="http://www.w3.org/2000/svg" xmlns:xlink="http://www.w3.org/1999/xlink" version="1.1"><g stroke-width="1" stroke-linejoin="bevel"><path d="M991 487L1030.1 459L1030.1 410Z" fill="#af1440" stroke="#af1440"></path><path d="M1164.3 317L1036.1 320L1030.1 410Z" fill="#30254f" stroke="#30254f"></path><path d="M1030.1 410L801.9 320L991 487Z" fill="#222447" stroke="#222447"></path><path d="M1036.1 320L1033 314L1030.1 410Z" fill="#741f5a" stroke="#741f5a"></path><path d="M1033 314L801.9 320L1030.1 410Z" fill="#63235b" stroke="#63235b"></path><path d="M1030.1 459L1164.3 317L1030.1 410Z" fill="#a3124a" stroke="#a3124a"></path><path d="M1036.1 320L1164.3 317L1033 314Z" fill="#851a57" stroke="#851a57"></path><path d="M991 487L1172.3 562L1030.1 459Z" fill="#951551" stroke="#951551"></path><path d="M1030.1 459L1172.3 562L1164.3 317Z" fill="#951551" stroke="#951551"></path><path d="M772.9 564L885 645L991 487Z" fill="#a3124a" stroke="#a3124a"></path><path d="M991 487L1151.1 656L1172.3 562Z" fill="#af1440" stroke="#af1440"></path><path d="M801.9 320L772.9 564L991 487Z" fill="#af1440" stroke="#af1440"></path><path d="M1073.1 156L964 184L1033 314Z" fill="#741f5a" stroke="#741f5a"></path><path d="M1033 314L964 184L801.9 320Z" fill="#16213e" stroke="#16213e"></path><path d="M772.9 564L778.9 582L885 645Z" fill="#512559" stroke="#512559"></path><path d="M885 645L1151.1 656L991 487Z" fill="#951551" stroke="#951551"></path><path d="M1164.3 317L1073.1 156L1033 314Z" fill="#a3124a" stroke="#a3124a"></path><path d="M725.7 630L765.7 632L778.9 582Z" fill="#512559" stroke="#512559"></path><path d="M778.9 582L765.7 632L885 645Z" fill="#951551" stroke="#951551"></path><path d="M1296.3 630L1267.3 332L1172.3 562Z" fill="#402655" stroke="#402655"></path><path d="M1172.3 562L1267.3 332L1164.3 317Z" fill="#30254f" stroke="#30254f"></path><path d="M1164.3 317L1237.3 114L1073.1 156Z" fill="#222447" stroke="#222447"></path><path d="M632.6 520L725.7 630L772.9 564Z" fill="#af1440" stroke="#af1440"></path><path d="M772.9 564L725.7 630L778.9 582Z" fill="#222447" stroke="#222447"></path><path d="M765.7 632L838.9 756L885 645Z" fill="#63235b" stroke="#63235b"></path><path d="M747.7 202L727.9 231L801.9 320Z" fill="#222447" stroke="#222447"></path><path d="M801.9 320L649.7 403L772.9 564Z" fill="#a3124a" stroke="#a3124a"></path><path d="M747.7 202L801.9 320L964 184Z" fill="#a3124a" stroke="#a3124a"></path><path d="M746.9 106L747.7 202L964 184Z" fill="#a3124a" stroke="#a3124a"></path><path d="M727.9 231L649.7 403L801.9 320Z" fill="#af1440" stroke="#af1440"></path><path d="M725.7 630L838.9 756L765.7 632Z" fill="#951551" stroke="#951551"></path><path d="M885 645L1033 886L1151.1 656Z" fill="#63235b" stroke="#63235b"></path><path d="M649.7 403L632.6 520L772.9 564Z" fill="#16213e" stroke="#16213e"></path><path d="M1346.4 656L1296.3 630L1315.4 750Z" fill="#851a57" stroke="#851a57"></path><path d="M1151.1 656L1296.3 630L1172.3 562Z" fill="#a3124a" stroke="#a3124a"></path><path d="M1092.1 0L1018 62L1073.1 156Z" fill="#741f5a" stroke="#741f5a"></path><path d="M1073.1 156L1018 62L964 184Z" fill="#30254f" stroke="#30254f"></path><path d="M747.7 202L678.7 181L727.9 231Z" fill="#741f5a" stroke="#741f5a"></path><path d="M727.9 231L525.6 318L649.7 403Z" fill="#951551" stroke="#951551"></path><path d="M649.7 403L552.6 408L632.6 520Z" fill="#222447" stroke="#222447"></path><path d="M746.9 106L678.7 181L747.7 202Z" fill="#222447" stroke="#222447"></path><path d="M834.9 0L746.9 106L964 184Z" fill="#63235b" stroke="#63235b"></path><path d="M1296.3 630L1376.4 333L1267.3 332Z" fill="#851a57" stroke="#851a57"></path><path d="M1267.3 332L1237.3 114L1164.3 317Z" fill="#30254f" stroke="#30254f"></path><path d="M1365.4 230L1237.3 114L1267.3 332Z" fill="#a3124a" stroke="#a3124a"></path><path d="M1315.4 750L1296.3 630L1151.1 656Z" fill="#512559" stroke="#512559"></path><path d="M1296.3 630L1450.4 610L1376.4 333Z" fill="#af1440" stroke="#af1440"></path><path d="M525.6 318L552.6 408L649.7 403Z" fill="#741f5a" stroke="#741f5a"></path><path d="M1376.4 333L1365.4 230L1267.3 332Z" fill="#af1440" stroke="#af1440"></path><path d="M1092.1 0L934 0L1018 62Z" fill="#222447" stroke="#222447"></path><path d="M1018 62L934 0L964 184Z" fill="#951551" stroke="#951551"></path><path d="M1237.3 114L1092.1 0L1073.1 156Z" fill="#512559" stroke="#512559"></path><path d="M838.9 756L1033 886L885 645Z" fill="#a3124a" stroke="#a3124a"></path><path d="M1365.4 230L1359.4 175L1237.3 114Z" fill="#851a57" stroke="#851a57"></path><path d="M1237.3 114L1320.3 0L1092.1 0Z" fill="#402655" stroke="#402655"></path><path d="M1294.3 864L1315.4 750L1151.1 656Z" fill="#951551" stroke="#951551"></path><path d="M934 0L834.9 0L964 184Z" fill="#402655" stroke="#402655"></path><path d="M507.4 170L525.6 318L678.7 181Z" fill="#a3124a" stroke="#a3124a"></path><path d="M892 899L1041.1 893L1033 886Z" fill="#16213e" stroke="#16213e"></path><path d="M1033 886L1133.1 908L1151.1 656Z" fill="#222447" stroke="#222447"></path><path d="M678.7 181L525.6 318L727.9 231Z" fill="#30254f" stroke="#30254f"></path><path d="M526.6 0L678.7 181L746.9 106Z" fill="#402655" stroke="#402655"></path><path d="M823.9 979L892 899L838.9 756Z" fill="#402655" stroke="#402655"></path><path d="M838.9 756L892 899L1033 886Z" fill="#63235b" stroke="#63235b"></path><path d="M645.7 904L838.9 756L725.7 630Z" fill="#a3124a" stroke="#a3124a"></path><path d="M542.6 693L725.7 630L632.6 520Z" fill="#af1440" stroke="#af1440"></path><path d="M1092.1 1080L1133.1 908L1041.1 893Z" fill="#af1440" stroke="#af1440"></path><path d="M1041.1 893L1133.1 908L1033 886Z" fill="#402655" stroke="#402655"></path><path d="M834.9 0L739.7 0L746.9 106Z" fill="#741f5a" stroke="#741f5a"></path><path d="M1459.6 707L1450.4 610L1346.4 656Z" fill="#512559" stroke="#512559"></path><path d="M1346.4 656L1450.4 610L1296.3 630Z" fill="#741f5a" stroke="#741f5a"></path><path d="M1376.4 333L1549.6 240L1365.4 230Z" fill="#402655" stroke="#402655"></path><path d="M1365.4 230L1536.6 195L1359.4 175Z" fill="#30254f" stroke="#30254f"></path><path d="M465.4 622L632.6 520L552.6 408Z" fill="#851a57" stroke="#851a57"></path><path d="M465.4 622L542.6 693L632.6 520Z" fill="#30254f" stroke="#30254f"></path><path d="M1133.1 908L1294.3 864L1151.1 656Z" fill="#741f5a" stroke="#741f5a"></path><path d="M1315.4 750L1459.6 707L1346.4 656Z" fill="#63235b" stroke="#63235b"></path><path d="M526.6 0L507.4 170L678.7 181Z" fill="#512559" stroke="#512559"></path><path d="M372.3 422L465.4 622L552.6 408Z" fill="#16213e" stroke="#16213e"></path><path d="M1493.6 826L1459.6 707L1315.4 750Z" fill="#741f5a" stroke="#741f5a"></path><path d="M1359.4 175L1320.3 0L1237.3 114Z" fill="#16213e" stroke="#16213e"></path><path d="M412.4 373L552.6 408L525.6 318Z" fill="#63235b" stroke="#63235b"></path><path d="M1530.6 0L1337.4 0L1359.4 175Z" fill="#402655" stroke="#402655"></path><path d="M1359.4 175L1337.4 0L1320.3 0Z" fill="#741f5a" stroke="#741f5a"></path><path d="M432.4 0L480.4 176L507.4 170Z" fill="#af1440" stroke="#af1440"></path><path d="M507.4 170L480.4 176L525.6 318Z" fill="#16213e" stroke="#16213e"></path><path d="M645.7 904L823.9 979L838.9 756Z" fill="#851a57" stroke="#851a57"></path><path d="M892 899L974 1080L1041.1 893Z" fill="#16213e" stroke="#16213e"></path><path d="M645.7 904L725.7 630L542.6 693Z" fill="#a3124a" stroke="#a3124a"></path><path d="M1133.1 908L1285.4 918L1294.3 864Z" fill="#af1440" stroke="#af1440"></path><path d="M1294.3 864L1493.6 826L1315.4 750Z" fill="#16213e" stroke="#16213e"></path><path d="M1263.3 1031L1285.4 918L1133.1 908Z" fill="#a3124a" stroke="#a3124a"></path><path d="M464.6 182L412.4 373L525.6 318Z" fill="#af1440" stroke="#af1440"></path><path d="M1592.6 539L1556.7 479L1450.4 610Z" fill="#63235b" stroke="#63235b"></path><path d="M1450.4 610L1556.7 479L1376.4 333Z" fill="#951551" stroke="#951551"></path><path d="M480.4 176L464.6 182L525.6 318Z" fill="#951551" stroke="#951551"></path><path d="M432.4 0L464.6 182L480.4 176Z" fill="#a3124a" stroke="#a3124a"></path><path d="M466.6 860L645.7 904L542.6 693Z" fill="#222447" stroke="#222447"></path><path d="M1605.6 339L1549.6 240L1376.4 333Z" fill="#16213e" stroke="#16213e"></path><path d="M1549.6 240L1536.6 195L1365.4 230Z" fill="#222447" stroke="#222447"></path><path d="M279.3 318L372.3 422L412.4 373Z" fill="#402655" stroke="#402655"></path><path d="M412.4 373L372.3 422L552.6 408Z" fill="#af1440" stroke="#af1440"></path><path d="M1587.7 670L1592.6 539L1450.4 610Z" fill="#512559" stroke="#512559"></path><path d="M1605.6 339L1569.7 227L1549.6 240Z" fill="#851a57" stroke="#851a57"></path><path d="M1605.6 339L1376.4 333L1556.7 479Z" fill="#63235b" stroke="#63235b"></path><path d="M1549.6 240L1569.7 227L1536.6 195Z" fill="#402655" stroke="#402655"></path><path d="M1536.6 195L1571.7 115L1359.4 175Z" fill="#63235b" stroke="#63235b"></path><path d="M1725.7 507L1605.6 339L1556.7 479Z" fill="#851a57" stroke="#851a57"></path><path d="M739.7 0L526.6 0L746.9 106Z" fill="#951551" stroke="#951551"></path><path d="M464.6 182L279.3 318L412.4 373Z" fill="#30254f" stroke="#30254f"></path><path d="M645.7 904L715.7 1013L823.9 979Z" fill="#63235b" stroke="#63235b"></path><path d="M823.9 979L974 1080L892 899Z" fill="#951551" stroke="#951551"></path><path d="M1285.4 918L1493.6 826L1294.3 864Z" fill="#63235b" stroke="#63235b"></path><path d="M1459.6 707L1587.7 670L1450.4 610Z" fill="#851a57" stroke="#851a57"></path><path d="M821.9 1080L974 1080L823.9 979Z" fill="#951551" stroke="#951551"></path><path d="M1285.4 918L1301.4 1080L1493.6 826Z" fill="#a3124a" stroke="#a3124a"></path><path d="M1598.7 804L1587.7 670L1459.6 707Z" fill="#63235b" stroke="#63235b"></path><path d="M1592.6 539L1725.7 507L1556.7 479Z" fill="#a3124a" stroke="#a3124a"></path><path d="M372.3 422L366.3 647L465.4 622Z" fill="#851a57" stroke="#851a57"></path><path d="M465.4 622L401.4 747L542.6 693Z" fill="#951551" stroke="#951551"></path><path d="M645.7 904L577.6 1033L715.7 1013Z" fill="#63235b" stroke="#63235b"></path><path d="M974 1080L1092.1 1080L1041.1 893Z" fill="#16213e" stroke="#16213e"></path><path d="M1157.3 1080L1263.3 1031L1133.1 908Z" fill="#402655" stroke="#402655"></path><path d="M366.3 647L401.4 747L465.4 622Z" fill="#512559" stroke="#512559"></path><path d="M762.7 1080L821.9 1080L823.9 979Z" fill="#af1440" stroke="#af1440"></path><path d="M1092.1 1080L1157.3 1080L1133.1 908Z" fill="#951551" stroke="#951551"></path><path d="M401.4 747L466.6 860L542.6 693Z" fill="#402655" stroke="#402655"></path><path d="M715.7 1013L762.7 1080L823.9 979Z" fill="#a3124a" stroke="#a3124a"></path><path d="M1569.7 227L1571.7 115L1536.6 195Z" fill="#af1440" stroke="#af1440"></path><path d="M1713.9 218L1571.7 115L1569.7 227Z" fill="#741f5a" stroke="#741f5a"></path><path d="M577.6 1033L762.7 1080L715.7 1013Z" fill="#a3124a" stroke="#a3124a"></path><path d="M1571.7 115L1530.6 0L1359.4 175Z" fill="#402655" stroke="#402655"></path><path d="M526.6 0L432.4 0L507.4 170Z" fill="#951551" stroke="#951551"></path><path d="M287.3 178L279.3 318L464.6 182Z" fill="#402655" stroke="#402655"></path><path d="M372.3 422L273.3 596L366.3 647Z" fill="#a3124a" stroke="#a3124a"></path><path d="M1569.6 875L1598.7 804L1493.6 826Z" fill="#851a57" stroke="#851a57"></path><path d="M1493.6 826L1598.7 804L1459.6 707Z" fill="#222447" stroke="#222447"></path><path d="M1587.7 670L1725.7 507L1592.6 539Z" fill="#741f5a" stroke="#741f5a"></path><path d="M1157.3 1080L1301.4 1080L1263.3 1031Z" fill="#a3124a" stroke="#a3124a"></path><path d="M1263.3 1031L1301.4 1080L1285.4 918Z" fill="#512559" stroke="#512559"></path><path d="M466.6 860L577.6 1033L645.7 904Z" fill="#a3124a" stroke="#a3124a"></path><path d="M157.1 457L273.3 596L372.3 422Z" fill="#851a57" stroke="#851a57"></path><path d="M366.3 647L274.3 717L401.4 747Z" fill="#222447" stroke="#222447"></path><path d="M401.4 747L408.4 906L466.6 860Z" fill="#30254f" stroke="#30254f"></path><path d="M466.6 860L408.4 906L577.6 1033Z" fill="#512559" stroke="#512559"></path><path d="M1301.4 1080L1569.6 875L1493.6 826Z" fill="#222447" stroke="#222447"></path><path d="M432.4 0L287.3 178L464.6 182Z" fill="#512559" stroke="#512559"></path><path d="M335.4 903L408.4 906L401.4 747Z" fill="#512559" stroke="#512559"></path><path d="M1767.9 463L1920 652L1920 478Z" fill="#a3124a" stroke="#a3124a"></path><path d="M1792.9 715L1725.7 507L1587.7 670Z" fill="#512559" stroke="#512559"></path><path d="M1605.6 339L1713.9 218L1569.7 227Z" fill="#222447" stroke="#222447"></path><path d="M1571.7 115L1682.7 0L1530.6 0Z" fill="#402655" stroke="#402655"></path><path d="M1802.9 410L1713.9 218L1605.6 339Z" fill="#222447" stroke="#222447"></path><path d="M273.3 596L274.3 717L366.3 647Z" fill="#951551" stroke="#951551"></path><path d="M1802.9 410L1920 478L1920 429Z" fill="#741f5a" stroke="#741f5a"></path><path d="M1725.7 507L1767.9 463L1605.6 339Z" fill="#16213e" stroke="#16213e"></path><path d="M408.4 906L532.6 1080L577.6 1033Z" fill="#30254f" stroke="#30254f"></path><path d="M577.6 1033L532.6 1080L762.7 1080Z" fill="#512559" stroke="#512559"></path><path d="M274.3 717L335.4 903L401.4 747Z" fill="#222447" stroke="#222447"></path><path d="M408.4 906L324.3 1080L532.6 1080Z" fill="#741f5a" stroke="#741f5a"></path><path d="M273.3 596L218.1 721L274.3 717Z" fill="#af1440" stroke="#af1440"></path><path d="M274.3 717L203.1 885L335.4 903Z" fill="#af1440" stroke="#af1440"></path><path d="M76.1 610L218.1 721L273.3 596Z" fill="#63235b" stroke="#63235b"></path><path d="M157.1 457L372.3 422L279.3 318Z" fill="#63235b" stroke="#63235b"></path><path d="M1767.9 463L1802.9 410L1605.6 339Z" fill="#402655" stroke="#402655"></path><path d="M1792.9 715L1587.7 670L1598.7 804Z" fill="#a3124a" stroke="#a3124a"></path><path d="M1866.9 166L1682.7 0L1713.9 218Z" fill="#63235b" stroke="#63235b"></path><path d="M1713.9 218L1682.7 0L1571.7 115Z" fill="#63235b" stroke="#63235b"></path><path d="M81.1 214L157.1 457L279.3 318Z" fill="#16213e" stroke="#16213e"></path><path d="M157.1 457L135.1 511L273.3 596Z" fill="#402655" stroke="#402655"></path><path d="M1760.9 964L1598.7 804L1569.6 875Z" fill="#851a57" stroke="#851a57"></path><path d="M1760.9 964L1792.9 715L1598.7 804Z" fill="#851a57" stroke="#851a57"></path><path d="M432.4 0L237.3 0L287.3 178Z" fill="#402655" stroke="#402655"></path><path d="M287.3 178L81.1 214L279.3 318Z" fill="#951551" stroke="#951551"></path><path d="M0 496L76.1 610L135.1 511Z" fill="#951551" stroke="#951551"></path><path d="M237.3 0L157.1 74L287.3 178Z" fill="#30254f" stroke="#30254f"></path><path d="M1301.4 1080L1585.6 1080L1569.6 875Z" fill="#222447" stroke="#222447"></path><path d="M218.1 721L203.1 885L274.3 717Z" fill="#a3124a" stroke="#a3124a"></path><path d="M335.4 903L324.3 1080L408.4 906Z" fill="#512559" stroke="#512559"></path><path d="M0 709L203.1 885L218.1 721Z" fill="#30254f" stroke="#30254f"></path><path d="M230.1 0L157.1 74L237.3 0Z" fill="#951551" stroke="#951551"></path><path d="M1920 716L1855.9 695L1792.9 715Z" fill="#402655" stroke="#402655"></path><path d="M1792.9 715L1855.9 695L1725.7 507Z" fill="#222447" stroke="#222447"></path><path d="M320.4 1080L324.3 1080L335.4 903Z" fill="#30254f" stroke="#30254f"></path><path d="M1920 346L1713.9 218L1802.9 410Z" fill="#30254f" stroke="#30254f"></path><path d="M1920 346L1866.9 166L1713.9 218Z" fill="#63235b" stroke="#63235b"></path><path d="M0 496L135.1 511L157.1 457Z" fill="#222447" stroke="#222447"></path><path d="M135.1 511L76.1 610L273.3 596Z" fill="#16213e" stroke="#16213e"></path><path d="M181.3 951L320.4 1080L335.4 903Z" fill="#16213e" stroke="#16213e"></path><path d="M157.1 74L81.1 214L287.3 178Z" fill="#402655" stroke="#402655"></path><path d="M1585.6 1080L1653.7 1080L1569.6 875Z" fill="#741f5a" stroke="#741f5a"></path><path d="M1920 478L1802.9 410L1767.9 463Z" fill="#402655" stroke="#402655"></path><path d="M1920 652L1767.9 463L1725.7 507Z" fill="#222447" stroke="#222447"></path><path d="M1742.7 1026L1760.9 964L1569.6 875Z" fill="#222447" stroke="#222447"></path><path d="M1920 429L1920 346L1802.9 410Z" fill="#951551" stroke="#951551"></path><path d="M0 880L181.3 951L203.1 885Z" fill="#851a57" stroke="#851a57"></path><path d="M203.1 885L181.3 951L335.4 903Z" fill="#741f5a" stroke="#741f5a"></path><path d="M1920 716L1920 652L1855.9 695Z" fill="#741f5a" stroke="#741f5a"></path><path d="M1855.9 695L1920 652L1725.7 507Z" fill="#16213e" stroke="#16213e"></path><path d="M1653.7 1080L1742.7 1026L1569.6 875Z" fill="#16213e" stroke="#16213e"></path><path d="M1760.9 964L1920 716L1792.9 715Z" fill="#af1440" stroke="#af1440"></path><path d="M1653.7 1080L1700.9 1080L1742.7 1026Z" fill="#30254f" stroke="#30254f"></path><path d="M1920 346L1920 198L1866.9 166Z" fill="#402655" stroke="#402655"></path><path d="M1866.9 166L1868.9 0L1682.7 0Z" fill="#63235b" stroke="#63235b"></path><path d="M1920 1019L1920 716L1760.9 964Z" fill="#63235b" stroke="#63235b"></path><path d="M0 339L0 496L157.1 457Z" fill="#951551" stroke="#951551"></path><path d="M76.1 610L0 709L218.1 721Z" fill="#951551" stroke="#951551"></path><path d="M1920 0L1868.9 0L1866.9 166Z" fill="#222447" stroke="#222447"></path><path d="M0 254L0 339L81.1 214Z" fill="#741f5a" stroke="#741f5a"></path><path d="M81.1 214L0 339L157.1 457Z" fill="#30254f" stroke="#30254f"></path><path d="M0 142L0 254L81.1 214Z" fill="#741f5a" stroke="#741f5a"></path><path d="M0 1080L198.1 1080L181.3 951Z" fill="#222447" stroke="#222447"></path><path d="M181.3 951L198.1 1080L320.4 1080Z" fill="#af1440" stroke="#af1440"></path><path d="M0 496L0 709L76.1 610Z" fill="#af1440" stroke="#af1440"></path><path d="M0 0L0 142L157.1 74Z" fill="#402655" stroke="#402655"></path><path d="M157.1 74L0 142L81.1 214Z" fill="#222447" stroke="#222447"></path><path d="M1920 198L1920 0L1866.9 166Z" fill="#851a57" stroke="#851a57"></path><path d="M230.1 0L0 0L157.1 74Z" fill="#63235b" stroke="#63235b"></path><path d="M0 709L0 880L203.1 885Z" fill="#a3124a" stroke="#a3124a"></path><path d="M1920 1080L1920 1019L1742.7 1026Z" fill="#951551" stroke="#951551"></path><path d="M1742.7 1026L1920 1019L1760.9 964Z" fill="#741f5a" stroke="#741f5a"></path><path d="M0 880L0 951L181.3 951Z" fill="#a3124a" stroke="#a3124a"></path><path d="M1700.9 1080L1920 1080L1742.7 1026Z" fill="#741f5a" stroke="#741f5a"></path><path d="M0 951L0 1080L181.3 951Z" fill="#af1440" stroke="#af1440"></path></g></svg>